<svg width="240" height="240" viewBox="0 0 240 240" xmlns="http://www.w3.org/2000/svg" role="img" aria-label="Site9">
  <rect width="240" height="240" rx="52" fill="#1B3A6B"/>
  <g transform="translate(41,32) scale(1.36)">
    <path d="M40 66 L54 71 L48 118 Q45.5 125 42 118 Z" fill="#ffffff"/>
    <path d="M50 71 L54 71 L48 118 Q46.5 122 44.5 119 Z" fill="#2B6BFF"/>
    <circle cx="62" cy="44" r="34" fill="none" stroke="#ffffff" stroke-width="12"/>
    <rect x="42" y="29" width="40" height="30" rx="5" fill="#ffffff"/>
    <circle cx="48" cy="34.5" r="1.7" fill="#1B3A6B"/>
    <circle cx="53.5" cy="34.5" r="1.7" fill="#1B3A6B"/>
    <circle cx="59" cy="34.5" r="1.7" fill="#1B3A6B"/>
    <rect x="46" y="41" width="10" height="10" rx="1.6" fill="#2B6BFF"/>
    <rect x="60" y="42" width="16" height="2.9" rx="1.45" fill="#1B3A6B"/>
    <rect x="60" y="48" width="11" height="2.9" rx="1.45" fill="#9aa7bd"/>
  </g>
</svg>
